<svg xmlns="http://www.w3.org/2000/svg" viewBox="0 0 48 32" fill="none">
  <rect width="48" height="32" rx="4" fill="#ffffff" stroke="#e5e5e5" stroke-width="0.5"/>
  <g transform="translate(12.5 4) scale(0.96)">
    <path d="M7.016 19.198l.37-2.344-.825-.019H3.511L5.882.898a.245.245 0 01.24-.204h5.155c1.712 0 2.893.356 3.51 1.059.29.329.474.673.565 1.052.094.397.096.872.005 1.45l-.006.042v.37l.289.164c.243.13.437.28.585.452.248.29.408.66.475 1.1.069.452.046.99-.067 1.597-.13.698-.341 1.307-.627 1.805a3.767 3.767 0 01-.993 1.168c-.373.3-.816.527-1.318.674-.487.144-1.04.217-1.644.217h-.39a1.18 1.18 0 00-1.165.994l-.03.164-.493 3.126-.022.118c-.005.032-.015.048-.028.059a.075.075 0 01-.047.019H7.016z" fill="#253B80"/>
    <path d="M15.877 4.361c-.016.1-.034.204-.055.31-.706 3.622-3.12 4.874-6.205 4.874H8.05a.763.763 0 00-.754.645l-.802 5.09-.227 1.443a.402.402 0 00.397.465h2.786a.669.669 0 00.661-.565l.027-.141.524-3.322.034-.183a.669.669 0 01.661-.566h.416c2.694 0 4.804-1.094 5.42-4.259.258-1.322.124-2.425-.557-3.2a2.655 2.655 0 00-.76-.591z" fill="#179BD7"/>
    <path d="M15.05 4.024a5.946 5.946 0 00-.735-.163 9.363 9.363 0 00-1.489-.109H8.769a.666.666 0 00-.66.564l-.97 6.148-.028.179a.763.763 0 01.754-.645h1.567c3.085 0 5.5-1.253 6.205-4.874.021-.107.039-.21.055-.311a3.556 3.556 0 00-.642-.274 5.944 5.944 0 00-.001-.515z" fill="#222D65"/>
  </g>
</svg>
